# xmcd
#
# Track frame offsets:
#	150
#	18711
#	33931
#	54225
#	74015
#	93238
#	110857
#	130285
#	147480
#	163731
#	182535
#	198017
#	209941
#	227229
#	247436
#	270061
#
# Disc length: 3854 seconds
#
# Revision: 1
# Processed by: cddbd v1.4PL0 Copyright (c) Steve Scherf et al.
# Submitted via: audiograbber 1.80
#
DISCID=f40f0c10
DTITLE=Sister Carol - Empressive
DYEAR=1900
DGENRE=
TTITLE0=His mercey endureth
TTITLE1=Rastafire
TTITLE2=Nuh Mash it dung
TTITLE3=Hempumentary
TTITLE4=Satisfaction guanranteed
TTITLE5=Oh what a joy
TTITLE6=Rose in Jah Garden
TTITLE7=No to incest
TTITLE8=Mama, mama
TTITLE9=Mello yellow
TTITLE10=Freedy freedy
TTITLE11=Nineoneone
TTITLE12=Empty world
TTITLE13=Cold Shack
TTITLE14=Original drum
TTITLE15=Rhythm of reggae
EXTD=
EXTT0=
EXTT1=
EXTT2=
EXTT3=
EXTT4=
EXTT5=
EXTT6=
EXTT7=
EXTT8=
EXTT9=
EXTT10=
EXTT11=
EXTT12=
EXTT13=
EXTT14=
EXTT15=
PLAYORDER=
